# Blender 3.5.1
# www.blender.org
mtllib ceiling.mtl
o Plane.003
v 2.000000 4.000000 15.000000
v -2.000000 4.000000 15.000000
v 2.000000 4.000000 -15.000000
v -2.000000 4.000000 -15.000000
vn -0.0000 -1.0000 -0.0000
vt 0.000000 0.000000
vt 1.000000 0.000000
vt 0.000000 1.000000
vt 1.000000 1.000000
s 0
f 1/1/1 2/2/1 4/4/1 3/3/1
o Cube
v -2.000000 3.400000 15.000000
v -2.000000 3.400000 -15.000000
v -1.400000 4.000000 15.000000
v -1.400000 4.000000 -15.000000
v -2.000000 3.400000 0.000000
v -1.700000 3.400000 -15.000000
v -1.400000 3.700000 -15.000000
v -1.400000 4.000000 0.000000
v -1.400000 3.700000 15.000000
v -1.700000 3.400000 15.000000
v -1.700000 3.400000 0.000000
v -1.400000 3.700000 0.000000
vn 1.0000 -0.0000 -0.0000
vn -0.0000 -1.0000 -0.0000
vn 0.7071 -0.7071 -0.0000
vt 0.125000 0.750000
vt 0.125000 0.500000
vt 0.625000 0.750000
vt 0.625000 0.500000
vt 0.125000 0.625000
vt 0.250000 0.500000
vt 0.500000 0.500000
vt 0.625000 0.625000
vt 0.500000 0.750000
vt 0.250000 0.750000
vt 0.250000 0.625000
vt 0.500000 0.625000
s 0
f 16/16/2 12/12/2 7/7/2 13/13/2
f 9/9/3 15/15/3 14/14/3 5/5/3
f 6/6/3 10/10/3 15/15/3 9/9/3
f 16/16/4 13/13/4 14/14/4 15/15/4
f 11/11/2 8/8/2 12/12/2 16/16/2
f 11/11/4 16/16/4 15/15/4 10/10/4
o Cube.001
v 1.999999 3.400000 -15.000000
v 2.000001 3.400000 15.000000
v 1.399999 4.000000 -15.000000
v 1.400001 4.000000 15.000000
v 2.000000 3.400000 -0.000000
v 1.700001 3.400000 15.000000
v 1.400001 3.700000 15.000000
v 1.400000 4.000000 0.000000
v 1.399999 3.700000 -15.000000
v 1.699999 3.400000 -15.000000
v 1.700000 3.400000 0.000000
v 1.400000 3.700000 0.000000
vn -1.0000 -0.0000 -0.0000
vn -0.0000 -1.0000 -0.0000
vn -0.7071 -0.7071 -0.0000
vt 0.125000 0.750000
vt 0.125000 0.500000
vt 0.625000 0.750000
vt 0.625000 0.500000
vt 0.125000 0.625000
vt 0.250000 0.500000
vt 0.500000 0.500000
vt 0.625000 0.625000
vt 0.500000 0.750000
vt 0.250000 0.750000
vt 0.250000 0.625000
vt 0.500000 0.625000
s 0
f 28/28/5 24/24/5 19/19/5 25/25/5
f 21/21/6 27/27/6 26/26/6 17/17/6
f 18/18/6 22/22/6 27/27/6 21/21/6
f 28/28/7 25/25/7 26/26/7 27/27/7
f 23/23/5 20/20/5 24/24/5 28/28/5
f 23/23/7 28/28/7 27/27/7 22/22/7
