# Blender 3.5.1
# www.blender.org
mtllib window_wall.mtl
o Plane.002
v -2.000000 4.000000 15.000000
v -2.000000 0.000000 15.000000
v -2.000000 4.000000 -15.000000
v -2.000000 0.000000 -15.000000
v -2.000000 4.000000 0.000000
v -2.000000 2.000000 15.000000
v -2.000000 0.000000 0.000000
v -2.000000 2.000000 -15.000000
v -2.000000 4.000000 7.500000
v -2.000000 1.000000 15.000000
v -2.000000 0.000000 -7.500000
v -2.000000 3.000000 -15.000000
v -2.000000 4.000000 -7.500000
v -2.000000 3.000000 15.000000
v -2.000000 0.000000 7.500000
v -2.000000 1.000000 -15.000000
v -2.000000 2.000000 -7.903178
v -2.000000 2.000000 7.903178
v -2.000000 3.000000 0.000000
v -2.000000 1.000000 0.000000
v -2.000000 1.000000 7.500000
v -2.000000 3.000000 7.500000
v -2.000000 3.000000 -7.500000
v -2.000000 1.000000 -7.500000
v -2.000000 2.000000 3.346823
v -2.000000 1.521243 0.000000
v -2.000000 2.000000 -3.346823
v -2.000000 2.478757 0.000000
v -2.000000 1.000000 3.750000
v -2.000000 1.534836 7.369364
v -2.000000 3.000000 3.750000
v -2.000000 2.465164 7.369364
v -2.000000 3.000000 -3.750000
v -2.000000 2.465164 -7.369364
v -2.000000 1.000000 -3.750000
v -2.000000 1.534836 -7.369364
v -2.000000 1.534836 -3.880636
v -2.000000 2.465164 -3.880636
v -2.000000 1.534836 3.880636
v -2.000000 2.465164 3.880636
v -2.000000 2.000000 2.278178
v -2.000000 2.750000 0.000000
v -2.000000 1.000000 1.875000
v -2.000000 1.733955 7.620337
v -2.000000 3.000000 1.875000
v -2.000000 2.750000 7.500000
v -2.000000 3.000000 -5.625000
v -2.000000 2.750000 -7.500000
v -2.000000 1.000000 -5.625000
v -2.000000 1.733955 -7.620337
v -2.000000 1.250000 0.000000
v -2.000000 2.000000 -2.278178
v -2.000000 1.000000 5.625000
v -2.000000 1.250000 7.500000
v -2.000000 3.000000 5.625000
v -2.000000 2.266045 7.620337
v -2.000000 3.000000 -1.875000
v -2.000000 2.266045 -7.620337
v -2.000000 1.000000 -1.875000
v -2.000000 1.250000 -7.500000
v -2.000000 1.521243 -5.625000
v -2.000000 1.534836 -1.744364
v -2.000000 1.733955 -3.629663
v -2.000000 1.250000 -3.750000
v -2.000000 2.478757 -5.625000
v -2.000000 2.465164 -1.744364
v -2.000000 2.750000 -3.750000
v -2.000000 2.266045 -3.629663
v -2.000000 1.534836 1.744364
v -2.000000 1.521243 5.625000
v -2.000000 1.733955 3.629663
v -2.000000 1.250000 3.750000
v -2.000000 2.465164 1.744364
v -2.000000 2.478757 5.625000
v -2.000000 2.750000 3.750000
v -2.000000 2.266045 3.629663
v -2.000000 2.750000 5.625000
v -2.000000 2.750000 1.875000
v -2.000000 1.250000 5.625000
v -2.000000 1.733955 1.995337
v -2.000000 2.266045 -1.995337
v -2.000000 2.750000 -1.875000
v -2.000000 2.750000 -5.625000
v -2.000000 1.250000 -1.875000
v -2.000000 1.733955 -1.995337
v -2.000000 1.250000 -5.625000
v -2.000000 1.250000 1.875000
v -2.000000 2.266045 1.995337
v -2.500000 2.000000 -7.903178
v -2.500000 2.000000 7.903178
v -2.500000 1.733955 7.620337
v -2.500000 1.733955 -7.620337
v -2.500000 1.521243 -0.000000
v -2.500000 2.000000 -2.278178
v -2.500000 2.000000 -3.346823
v -2.500000 1.534836 7.369364
v -2.500000 2.266045 7.620337
v -2.500000 2.465164 7.369364
v -2.500000 2.266045 -7.620337
v -2.500000 2.465164 -7.369364
v -2.500000 1.534836 -7.369364
v -2.500000 1.521243 -5.625000
v -2.500000 1.534836 -1.744364
v -2.500000 1.534836 -3.880636
v -2.500000 1.733955 -3.629663
v -2.500000 2.478757 -5.625000
v -2.500000 2.465164 -1.744364
v -2.500000 2.465164 -3.880636
v -2.500000 2.266045 -3.629663
v -2.500000 1.534836 1.744364
v -2.500000 1.521243 5.625000
v -2.500000 1.534836 3.880636
v -2.500000 1.733955 3.629663
v -2.500000 2.000000 3.346823
v -2.500000 2.465164 1.744364
v -2.500000 2.478757 -0.000000
v -2.500000 2.478757 5.625000
v -2.500000 2.465164 3.880636
v -2.500000 2.266045 3.629663
v -2.500000 2.000000 2.278178
v -2.500000 1.733955 1.995337
v -2.500000 2.266045 -1.995337
v -2.500000 1.733955 -1.995337
v -2.500000 2.266045 1.995337
vn -1.0000 -0.0000 -0.0000
vn -0.0000 1.0000 0.0078
vn -0.0000 -0.7834 0.6215
vn -0.0000 1.0000 -0.0078
vn -0.0000 -0.7284 -0.6851
vn -0.0000 0.7834 0.6215
vn -0.0000 0.7834 -0.6215
vn -0.0000 0.7284 0.6851
vn -0.0000 0.7284 -0.6851
vn -0.0000 -1.0000 0.0078
vn -0.0000 -0.7834 -0.6215
vn -0.0000 -1.0000 -0.0078
vn -0.0000 -0.7284 0.6851
vt 0.000000 0.000000
vt 1.000000 0.000000
vt 0.000000 1.000000
vt 1.000000 1.000000
vt 0.000000 0.500000
vt 0.500000 0.000000
vt 1.000000 0.500000
vt 0.500000 1.000000
vt 0.000000 0.250000
vt 0.750000 0.000000
vt 1.000000 0.750000
vt 0.250000 1.000000
vt 0.000000 0.750000
vt 0.250000 0.000000
vt 1.000000 0.250000
vt 0.750000 1.000000
vt 0.500000 0.750000
vt 0.500000 0.250000
vt 0.250000 0.500000
vt 0.750000 0.500000
vt 0.750000 0.250000
vt 0.250000 0.250000
vt 0.250000 0.750000
vt 0.750000 0.750000
vt 0.500000 0.375000
vt 0.625000 0.500000
vt 0.500000 0.625000
vt 0.375000 0.500000
vt 0.750000 0.375000
vt 0.625000 0.250000
vt 0.250000 0.375000
vt 0.375000 0.250000
vt 0.250000 0.625000
vt 0.375000 0.750000
vt 0.750000 0.625000
vt 0.625000 0.750000
vt 0.625000 0.625000
vt 0.375000 0.625000
vt 0.625000 0.375000
vt 0.375000 0.375000
vt 0.500000 0.437500
vt 0.312500 0.500000
vt 0.750000 0.437500
vt 0.562500 0.250000
vt 0.250000 0.437500
vt 0.312500 0.250000
vt 0.250000 0.687500
vt 0.312500 0.750000
vt 0.750000 0.687500
vt 0.562500 0.750000
vt 0.687500 0.500000
vt 0.500000 0.562500
vt 0.750000 0.312500
vt 0.687500 0.250000
vt 0.250000 0.312500
vt 0.437500 0.250000
vt 0.250000 0.562500
vt 0.437500 0.750000
vt 0.750000 0.562500
vt 0.687500 0.750000
vt 0.625000 0.687500
vt 0.625000 0.562500
vt 0.562500 0.625000
vt 0.687500 0.625000
vt 0.375000 0.687500
vt 0.375000 0.562500
vt 0.312500 0.625000
vt 0.437500 0.625000
vt 0.625000 0.437500
vt 0.625000 0.312500
vt 0.562500 0.375000
vt 0.687500 0.375000
vt 0.375000 0.437500
vt 0.375000 0.312500
vt 0.312500 0.375000
vt 0.437500 0.375000
vt 0.312500 0.312500
vt 0.312500 0.437500
vt 0.687500 0.312500
vt 0.562500 0.437500
vt 0.437500 0.562500
vt 0.312500 0.562500
vt 0.312500 0.687500
vt 0.687500 0.562500
vt 0.562500 0.562500
vt 0.687500 0.687500
vt 0.687500 0.437500
vt 0.437500 0.437500
vt 0.500000 0.750000
vt 0.500000 0.250000
vt 0.562500 0.250000
vt 0.562500 0.750000
vt 0.625000 0.500000
vt 0.500000 0.562500
vt 0.500000 0.625000
vt 0.625000 0.250000
vt 0.437500 0.250000
vt 0.375000 0.250000
vt 0.437500 0.750000
vt 0.375000 0.750000
vt 0.625000 0.750000
vt 0.625000 0.687500
vt 0.625000 0.562500
vt 0.625000 0.625000
vt 0.562500 0.625000
vt 0.375000 0.687500
vt 0.375000 0.562500
vt 0.375000 0.625000
vt 0.437500 0.625000
vt 0.625000 0.437500
vt 0.625000 0.312500
vt 0.625000 0.375000
vt 0.562500 0.375000
vt 0.500000 0.375000
vt 0.375000 0.437500
vt 0.375000 0.500000
vt 0.375000 0.312500
vt 0.375000 0.375000
vt 0.437500 0.375000
vt 0.500000 0.437500
vt 0.562500 0.437500
vt 0.437500 0.562500
vt 0.562500 0.562500
vt 0.437500 0.437500
s 0
f 24/24/1 16/16/1 4/4/1 11/11/1
f 23/23/1 12/12/1 8/8/1 17/17/1 58/58/1 34/34/1 48/48/1
f 21/21/1 53/53/1 29/29/1 43/43/1 20/20/1 7/7/1 15/15/1
f 87/87/1 51/51/1 20/20/1 43/43/1
f 6/6/1 18/18/1 44/44/1 30/30/1 54/54/1 21/21/1 10/10/1
f 10/10/1 21/21/1 15/15/1 2/2/1
f 9/9/1 5/5/1 19/19/1 45/45/1 31/31/1 55/55/1 22/22/1
f 1/1/1 9/9/1 22/22/1 14/14/1
f 14/14/1 22/22/1 46/46/1 32/32/1 56/56/1 18/18/1 6/6/1
f 13/13/1 3/3/1 12/12/1 23/23/1
f 5/5/1 13/13/1 23/23/1 47/47/1 33/33/1 57/57/1 19/19/1
f 17/17/1 8/8/1 16/16/1 24/24/1 60/60/1 36/36/1 50/50/1
f 86/86/1 60/60/1 24/24/1 49/49/1
f 20/20/1 59/59/1 35/35/1 49/49/1 24/24/1 11/11/1 7/7/1
f 85/85/1 63/63/1 37/37/1 62/62/1
f 84/84/1 64/64/1 35/35/1 59/59/1
f 83/83/1 48/48/1 34/34/1 65/65/1
f 82/82/1 67/67/1 38/38/1 66/66/1
f 81/81/1 68/68/1 27/27/1 52/52/1
f 79/79/1 72/72/1 29/29/1 53/53/1
f 78/78/1 42/42/1 28/28/1 73/73/1
f 77/77/1 75/75/1 40/40/1 74/74/1
f 55/55/1 31/31/1 75/75/1 77/77/1
f 22/22/1 55/55/1 77/77/1 46/46/1
f 46/46/1 77/77/1 74/74/1 32/32/1
f 45/45/1 19/19/1 42/42/1 78/78/1
f 31/31/1 45/45/1 78/78/1 75/75/1
f 75/75/1 78/78/1 73/73/1 40/40/1
f 70/70/1 39/39/1 72/72/1 79/79/1
f 30/30/1 70/70/1 79/79/1 54/54/1
f 54/54/1 79/79/1 53/53/1 21/21/1
f 25/25/1 41/41/1 80/80/1 71/71/1
f 71/71/1 80/80/1 69/69/1 39/39/1
f 66/66/1 38/38/1 68/68/1 81/81/1
f 57/57/1 33/33/1 67/67/1 82/82/1
f 19/19/1 57/57/1 82/82/1 42/42/1
f 42/42/1 82/82/1 66/66/1 28/28/1
f 47/47/1 23/23/1 48/48/1 83/83/1
f 33/33/1 47/47/1 83/83/1 67/67/1
f 67/67/1 83/83/1 65/65/1 38/38/1
f 62/62/1 37/37/1 64/64/1 84/84/1
f 26/26/1 62/62/1 84/84/1 51/51/1
f 51/51/1 84/84/1 59/59/1 20/20/1
f 52/52/1 27/27/1 63/63/1 85/85/1
f 61/61/1 36/36/1 60/60/1 86/86/1
f 37/37/1 61/61/1 86/86/1 64/64/1
f 64/64/1 86/86/1 49/49/1 35/35/1
f 69/69/1 26/26/1 51/51/1 87/87/1
f 39/39/1 69/69/1 87/87/1 72/72/1
f 72/72/1 87/87/1 43/43/1 29/29/1
f 40/40/1 73/73/1 88/88/1 76/76/1
f 76/76/1 88/88/1 41/41/1 25/25/1
f 73/73/2 28/28/2 116/116/2 115/115/2
f 69/69/3 80/80/3 121/121/3 110/110/3
f 38/38/2 65/65/2 106/106/2 108/108/2
f 74/74/4 40/40/4 118/118/4 117/117/4
f 28/28/4 66/66/4 107/107/4 116/116/4
f 17/17/5 50/50/5 92/92/5 89/89/5
f 88/88/6 73/73/6 115/115/6 124/124/6
f 66/66/7 81/81/7 122/122/7 107/107/7
f 40/40/7 76/76/7 119/119/7 118/118/7
f 41/41/8 88/88/8 124/124/8 120/120/8
f 81/81/9 52/52/9 94/94/9 122/122/9
f 27/27/8 68/68/8 109/109/8 95/95/8
f 70/70/10 30/30/10 96/96/10 111/111/10
f 71/71/11 39/39/11 112/112/11 113/113/11
f 30/30/3 44/44/3 91/91/3 96/96/3
f 56/56/6 32/32/6 98/98/6 97/97/6
f 32/32/2 74/74/2 117/117/2 98/98/2
f 34/34/7 58/58/7 99/99/7 100/100/7
f 76/76/9 25/25/9 114/114/9 119/119/9
f 50/50/11 36/36/11 101/101/11 92/92/11
f 36/36/12 61/61/12 102/102/12 101/101/12
f 63/63/13 27/27/13 95/95/13 105/105/13
f 44/44/13 18/18/13 90/90/13 91/91/13
f 52/52/5 85/85/5 123/123/5 94/94/5
f 18/18/8 56/56/8 97/97/8 90/90/8
f 65/65/4 34/34/4 100/100/4 106/106/4
f 85/85/11 62/62/11 103/103/11 123/123/11
f 58/58/9 17/17/9 89/89/9 99/99/9
f 68/68/6 38/38/6 108/108/6 109/109/6
f 26/26/10 69/69/10 110/110/10 93/93/10
f 61/61/10 37/37/10 104/104/10 102/102/10
f 39/39/12 70/70/12 111/111/12 112/112/12
f 62/62/12 26/26/12 93/93/12 103/103/12
f 25/25/5 71/71/5 113/113/5 114/114/5
f 37/37/3 63/63/3 105/105/3 104/104/3
f 80/80/13 41/41/13 120/120/13 121/121/13
